<?xml version="1.0" encoding="utf-8"?>
<!-- Generator: Adobe Illustrator 16.0.0, SVG Export Plug-In . SVG Version: 6.00 Build 0)  -->
<!DOCTYPE svg PUBLIC "-//W3C//DTD SVG 1.1//EN" "http://www.w3.org/Graphics/SVG/1.1/DTD/svg11.dtd">
<svg version="1.1" id="Calque_1" xmlns="http://www.w3.org/2000/svg" xmlns:xlink="http://www.w3.org/1999/xlink" x="0px" y="0px"
	 width="501px" height="272.688px" viewBox="0 0 501 272.688" enable-background="new 0 0 501 272.688" xml:space="preserve">
<g>
	<polygon fill="#FFFFFF" points="235.061,159.821 181.76,159.821 208.406,228.326 	"/>
</g>
<g>
	<path fill="#FFFFFF" d="M70.026,187.959h14.702v7.925c0.382-0.7,0.875-1.56,1.481-2.579c0.604-1.018,1.383-2.003,2.338-2.958
		c0.955-0.954,2.133-1.782,3.533-2.481c1.399-0.7,3.086-1.052,5.061-1.052c2.481,0,4.725,0.541,6.731,1.624
		c2.003,1.082,3.723,2.547,5.154,4.392c1.434,1.847,2.547,3.961,3.343,6.349c0.793,2.386,1.192,4.917,1.192,7.591
		c0,2.671-0.399,5.299-1.192,7.877c-0.796,2.578-1.927,4.885-3.389,6.92c-1.466,2.039-3.232,3.677-5.3,4.918
		c-2.068,1.24-4.377,1.859-6.922,1.859c-1.717,0-3.213-0.284-4.487-0.857c-1.272-0.572-2.403-1.319-3.389-2.243
		c-0.986-0.924-1.813-1.96-2.481-3.104c-0.669-1.146-1.227-2.29-1.672-3.435v33.699h7.734v1.813H70.026v-1.813h6.777v-62.628h-6.777
		V187.959z M104.013,206.862c0.063-3.755-0.031-7.16-0.286-10.214c-0.064-0.445-0.159-1.114-0.288-2.006
		c-0.127-0.891-0.433-1.766-0.913-2.627c-0.48-0.858-1.182-1.606-2.11-2.241c-0.928-0.638-2.158-0.954-3.694-0.954
		c-1.92,0-3.854,0.73-5.806,2.195c-1.952,1.464-3.471,3.851-4.557,7.159c-0.449,1.527-0.786,3.185-1.009,4.965
		c-0.224,1.781-0.336,3.501-0.336,5.155c0,3.054,0.336,5.699,1.007,7.926c0.672,2.228,1.552,4.091,2.641,5.583
		c1.086,1.495,2.302,2.611,3.646,3.343c1.341,0.731,2.718,1.099,4.126,1.099c1.791,0,3.199-0.477,4.223-1.434
		c1.023-0.952,1.773-2.273,2.254-3.961s0.784-3.723,0.911-6.112C103.951,212.352,104.013,209.728,104.013,206.862z"/>
	<path fill="#FFFFFF" d="M117.677,187.959h14.988v37.425h6.587v1.813h-21.576v-1.813h7.064v-35.609h-7.064V187.959z
		 M122.831,166.956c0-1.527,0.542-2.831,1.624-3.915c1.082-1.08,2.388-1.624,3.915-1.624c1.527,0,2.831,0.543,3.914,1.624
		c1.082,1.084,1.623,2.388,1.623,3.915c0,1.528-0.541,2.833-1.623,3.913c-1.083,1.084-2.386,1.624-3.914,1.624
		c-1.527,0-2.833-0.54-3.915-1.624C123.373,169.789,122.831,168.483,122.831,166.956z"/>
	<path fill="#FFFFFF" d="M146.603,227.197h-0.859v-15.181h1.528c0.572,2.232,1.065,3.967,1.479,5.207
		c0.414,1.241,1.065,2.432,1.958,3.577c0.062,0.13,0.334,0.464,0.81,1.003c0.479,0.543,1.13,1.115,1.958,1.722
		c0.827,0.605,1.816,1.145,2.96,1.621c1.145,0.476,2.448,0.714,3.916,0.714c1.462,0,2.768-0.233,3.913-0.714
		c1.145-0.477,2.116-1.078,2.913-1.81c0.794-0.727,1.4-1.537,1.813-2.428c0.414-0.89,0.621-1.746,0.621-2.569
		c0-1.968-0.731-3.381-2.196-4.241c-1.464-0.856-3.947-1.634-7.446-2.332c-1.592-0.317-3.151-0.635-4.677-0.953
		c-1.53-0.317-2.865-0.827-4.011-1.524c-2.038-1.141-3.423-2.682-4.154-4.616c-0.731-1.937-1.097-3.794-1.097-5.572
		c0-3.556,1.083-6.491,3.247-8.811c2.163-2.317,5.061-3.477,8.688-3.477c1.337,0,2.53,0.143,3.581,0.431
		c1.049,0.286,1.989,0.652,2.816,1.098c0.825,0.446,1.541,0.892,2.147,1.337c0.604,0.444,1.099,0.858,1.479,1.24l1.816-3.532h0.954
		v11.743h-1.719c-0.254-1.782-0.765-3.31-1.527-4.584c-0.765-1.272-1.688-2.32-2.768-3.15c-1.084-0.825-2.229-1.431-3.439-1.813
		c-1.209-0.382-2.386-0.572-3.531-0.572c-1.402,0-2.643,0.224-3.725,0.669c-1.082,0.444-1.989,1.02-2.72,1.717
		c-0.731,0.702-1.29,1.45-1.672,2.243c-0.38,0.799-0.573,1.576-0.573,2.341c0,1.782,0.717,3.006,2.148,3.675
		c1.434,0.668,3.677,1.322,6.732,1.957l2.674,0.479c1.145,0.255,2.417,0.573,3.819,0.955c1.397,0.381,2.72,1.034,3.961,1.956
		c1.241,0.924,2.275,2.165,3.102,3.724c0.828,1.559,1.241,3.615,1.241,6.159c0,1.654-0.254,3.275-0.763,4.868
		c-0.512,1.592-1.289,3.024-2.34,4.295c-1.051,1.274-2.371,2.312-3.961,3.104c-1.592,0.795-3.47,1.191-5.635,1.191
		c-2.609,0-4.757-0.493-6.443-1.479c-1.688-0.985-3.263-2.052-4.726-3.196L146.603,227.197z"/>
</g>
<g>
	<path fill="#FFFFFF" d="M341.096,219.936c0.062,1.914,0.222,3.33,0.477,4.258c0.255,0.924,1.017,1.388,2.292,1.388
		c0.699,0,1.256-0.159,1.671-0.477c0.413-0.317,0.811-0.669,1.193-1.053l0.858,1.145c-1.909,1.909-4.168,2.866-6.777,2.866
		c-1.656,0-2.978-0.321-3.963-0.957c-0.987-0.635-1.734-1.383-2.242-2.243c-0.512-0.856-0.861-1.764-1.052-2.721
		c-0.191-0.953-0.319-1.751-0.382-2.386c-1.337,2.866-3.071,4.964-5.202,6.301c-2.133,1.337-4.601,2.006-7.399,2.006
		c-3.564,0-6.19-0.923-7.877-2.771c-1.688-1.843-2.53-4.007-2.53-6.489c0-1.273,0.271-2.724,0.811-4.345
		c0.541-1.622,1.83-3.197,3.868-4.727c1.654-1.274,3.93-2.34,6.827-3.199c2.894-0.858,6.792-1.287,11.693-1.287v-9.644
		c0-0.573-0.031-1.272-0.095-2.101c-0.063-0.827-0.319-1.623-0.765-2.388c-0.444-0.762-1.145-1.414-2.099-1.955
		c-0.955-0.541-2.292-0.812-4.01-0.812c-1.084,0-2.118,0.144-3.104,0.43c-0.986,0.287-1.847,0.652-2.576,1.098
		c-0.733,0.446-1.322,0.892-1.768,1.337c-0.444,0.447-0.669,0.858-0.669,1.24c0,0.19,0.097,0.447,0.286,0.765
		c0.192,0.318,0.415,0.638,0.669,0.955c0.383,0.445,0.652,0.955,0.813,1.527c0.156,0.572,0.238,1.018,0.238,1.338
		c0,0.892-0.304,1.781-0.907,2.672c-0.605,0.892-1.544,1.336-2.816,1.336c-1.337,0-2.277-0.509-2.815-1.526
		c-0.544-1.018-0.813-1.973-0.813-2.864c0-1.21,0.365-2.42,1.1-3.629c0.73-1.208,1.748-2.29,3.054-3.245
		c1.304-0.954,2.864-1.733,4.678-2.34c1.815-0.604,3.803-0.907,5.967-0.907c2.228,0,4.346,0.352,6.35,1.054
		c2.006,0.702,3.581,1.689,4.726,2.967c1.21,1.339,1.894,2.808,2.054,4.401c0.157,1.597,0.238,3.255,0.238,4.977V219.936z
		 M333.457,206.866c-1.337,0-2.833,0.083-4.487,0.241c-1.655,0.159-3.374,0.652-5.154,1.479c-2.419,1.082-4.011,2.403-4.774,3.961
		c-0.765,1.559-1.146,3.071-1.146,4.534c0,2.419,0.668,4.153,2.006,5.206c1.337,1.049,2.799,1.575,4.392,1.575
		c1.337,0,2.468-0.242,3.389-0.719c0.923-0.477,1.606-0.937,2.054-1.383c0.828-0.765,1.479-1.559,1.958-2.386
		c0.476-0.828,0.842-1.722,1.097-2.675c0.255-0.956,0.414-1.972,0.478-3.055c0.063-1.082,0.126-2.197,0.19-3.342V206.866z"/>
	<path fill="#FFFFFF" d="M386.568,210.593v16.609H352.58l24.346-37.424h-4.392c-1.528,0-2.85,0.046-3.963,0.143
		c-1.113,0.096-2.085,0.238-2.912,0.431c-0.828,0.189-1.545,0.444-2.147,0.762c-0.606,0.319-1.162,0.734-1.67,1.241
		c-0.512,0.512-0.94,1.036-1.289,1.575c-0.351,0.543-0.702,1.21-1.051,2.006c-0.352,0.796-0.717,1.766-1.1,2.912
		c-0.38,1.146-0.858,2.609-1.431,4.392h-1.24l0.382-15.276h31.506l-24.729,37.426h6.97c1.59,0,3.009-0.029,4.249-0.097
		c1.241-0.062,2.338-0.237,3.293-0.521c0.955-0.288,1.799-0.719,2.53-1.291c0.731-0.573,1.416-1.367,2.054-2.387
		c0.442-0.702,0.858-1.542,1.24-2.532c0.383-0.985,0.731-1.984,1.05-3.004c0.319-1.02,0.574-1.972,0.765-2.867
		c0.19-0.889,0.349-1.588,0.479-2.097H386.568z"/>
	<path fill="#FFFFFF" d="M419.61,187.963h14.609v37.426h6.97v1.813h-14.702v-6.014c-0.255,0.447-0.639,1.066-1.147,1.86
		c-0.51,0.798-1.289,1.592-2.338,2.39c-1.051,0.794-2.404,1.479-4.06,2.052c-1.654,0.572-3.723,0.856-6.205,0.856
		c-2.863,0-5.076-0.381-6.636-1.145c-1.56-0.765-2.72-1.588-3.484-2.482c-1.399-1.524-2.229-3.18-2.482-4.964
		c-0.254-1.78-0.382-3.882-0.382-6.302v-23.676h-6.777v-1.815h14.512v27.782c0,1.273,0.048,2.515,0.142,3.723
		c0.097,1.212,0.37,2.294,0.817,3.247c0.447,0.957,1.135,1.737,2.062,2.34c0.93,0.605,2.223,0.906,3.886,0.906
		c0.961,0,2.064-0.143,3.312-0.431c1.247-0.284,2.511-0.873,3.79-1.763c1.151-0.765,2.048-1.672,2.686-2.721
		c0.64-1.053,1.121-2.261,1.44-3.631c0.319-1.367,0.543-2.925,0.671-4.676c0.129-1.75,0.194-3.711,0.194-5.874v-17.088h-6.877
		V187.963z"/>
	<path fill="#FFFFFF" d="M446.104,159.8h15.85v65.588h7.828v1.813h-23.678v-1.813h7.735v-63.775h-7.735V159.8z"/>
	<path fill="#FFFFFF" d="M474.424,187.963h14.988v37.426H496v1.813h-21.576v-1.813h7.064v-35.61h-7.064V187.963z M479.578,166.96
		c0-1.527,0.542-2.831,1.624-3.915c1.082-1.081,2.388-1.623,3.915-1.623s2.831,0.542,3.913,1.623
		c1.082,1.084,1.624,2.388,1.624,3.915c0,1.527-0.542,2.833-1.624,3.913c-1.082,1.084-2.386,1.624-3.913,1.624
		s-2.833-0.539-3.915-1.624C480.12,169.793,479.578,168.487,479.578,166.96z"/>
</g>
<g>
	<path fill="#FFFFFF" d="M274.428,254.371l3.209,0.81c-0.673,2.638-1.885,4.647-3.631,6.029c-1.749,1.384-3.886,2.077-6.41,2.077
		c-2.613,0-4.741-0.534-6.376-1.597c-1.638-1.064-2.885-2.606-3.739-4.625c-0.855-2.019-1.281-4.183-1.281-6.502
		c0-2.523,0.48-4.726,1.445-6.606c0.966-1.88,2.338-3.309,4.12-4.282c1.78-0.978,3.74-1.467,5.881-1.467
		c2.426,0,4.465,0.619,6.119,1.855c1.655,1.233,2.806,2.971,3.458,5.211l-3.159,0.743c-0.564-1.768-1.379-3.05-2.449-3.857
		c-1.069-0.802-2.415-1.206-4.036-1.206c-1.863,0-3.422,0.446-4.673,1.34c-1.252,0.895-2.131,2.094-2.639,3.599
		c-0.508,1.505-0.761,3.059-0.761,4.654c0,2.064,0.301,3.866,0.902,5.403c0.6,1.537,1.536,2.686,2.804,3.447
		c1.268,0.764,2.641,1.145,4.118,1.145c1.796,0,3.32-0.519,4.565-1.559C273.144,257.946,273.987,256.409,274.428,254.371z"/>
	<path fill="#FFFFFF" d="M282.457,251.062c0-4.024,1.081-7.175,3.243-9.452c2.16-2.277,4.951-3.418,8.369-3.418
		c2.238,0,4.256,0.534,6.055,1.604c1.797,1.07,3.167,2.562,4.109,4.476c0.945,1.914,1.415,4.081,1.415,6.51
		c0,2.456-0.495,4.659-1.487,6.597c-0.992,1.943-2.398,3.415-4.218,4.409c-1.82,0.999-3.784,1.5-5.89,1.5
		c-2.284,0-4.322-0.551-6.12-1.654c-1.798-1.104-3.161-2.607-4.086-4.518C282.921,255.211,282.457,253.191,282.457,251.062z
		 M285.765,251.111c0,2.921,0.785,5.224,2.358,6.906c1.571,1.681,3.542,2.524,5.913,2.524c2.415,0,4.401-0.852,5.962-2.55
		c1.561-1.695,2.341-4.105,2.341-7.228c0-1.972-0.334-3.698-1-5.169c-0.669-1.476-1.645-2.616-2.93-3.426
		c-1.285-0.812-2.726-1.216-4.324-1.216c-2.273,0-4.227,0.781-5.864,2.343C286.583,244.855,285.765,247.463,285.765,251.111z"/>
	<path fill="#FFFFFF" d="M311.886,262.874v-24.252h3.293l12.736,19.041v-19.041h3.077v24.252h-3.293l-12.736-19.059v19.059H311.886z
		"/>
	<path fill="#FFFFFF" d="M337.216,255.081l3.027-0.264c0.145,1.211,0.479,2.206,1.001,2.983c0.523,0.777,1.337,1.409,2.44,1.89
		c1.103,0.475,2.344,0.718,3.723,0.718c1.225,0,2.305-0.184,3.242-0.548c0.937-0.363,1.634-0.86,2.092-1.495
		c0.457-0.635,0.688-1.324,0.688-2.076c0-0.762-0.222-1.426-0.663-1.994c-0.44-0.567-1.169-1.044-2.183-1.429
		c-0.652-0.255-2.09-0.647-4.318-1.183c-2.228-0.534-3.788-1.04-4.681-1.517c-1.159-0.606-2.022-1.358-2.588-2.257
		c-0.568-0.897-0.853-1.904-0.853-3.017c0-1.225,0.347-2.37,1.042-3.435c0.694-1.065,1.71-1.872,3.043-2.423
		c1.335-0.553,2.817-0.828,4.449-0.828c1.8,0,3.383,0.288,4.758,0.868c1.372,0.582,2.428,1.43,3.167,2.558
		c0.737,1.125,1.135,2.398,1.19,3.82l-3.077,0.233c-0.165-1.533-0.725-2.691-1.678-3.476c-0.955-0.783-2.362-1.176-4.227-1.176
		c-1.94,0-3.355,0.356-4.242,1.066c-0.889,0.714-1.334,1.571-1.334,2.574c0,0.873,0.316,1.587,0.945,2.151
		c0.615,0.56,2.229,1.136,4.838,1.726c2.607,0.594,4.396,1.108,5.367,1.551c1.41,0.646,2.452,1.476,3.125,2.469
		c0.673,0.999,1.01,2.147,1.01,3.451c0,1.292-0.37,2.508-1.107,3.648c-0.739,1.141-1.801,2.027-3.184,2.661
		c-1.386,0.636-2.941,0.953-4.674,0.953c-2.195,0-4.034-0.321-5.518-0.961s-2.645-1.601-3.489-2.887
		C337.705,258.155,337.26,256.702,337.216,255.081z"/>
	<path fill="#FFFFFF" d="M378.585,238.622h3.209v14.011c0,2.438-0.275,4.374-0.827,5.808s-1.546,2.6-2.985,3.497
		c-1.439,0.898-3.328,1.35-5.666,1.35c-2.271,0-4.131-0.393-5.574-1.174c-1.445-0.786-2.476-1.918-3.095-3.401
		c-0.618-1.483-0.926-3.511-0.926-6.079v-14.011h3.21v13.993c0,2.105,0.193,3.66,0.587,4.659c0.391,0.999,1.063,1.768,2.018,2.307
		c0.953,0.538,2.119,0.811,3.498,0.811c2.36,0,4.042-0.535,5.045-1.604c1.003-1.07,1.507-3.126,1.507-6.172V238.622z"/>
	<path fill="#FFFFFF" d="M389.142,262.874v-24.252h3.209v21.39h11.942v2.862H389.142z"/>
	<path fill="#FFFFFF" d="M412.834,262.874v-21.39h-7.989v-2.862h19.221v2.862h-8.022v21.39H412.834z"/>
	<path fill="#FFFFFF" d="M429.547,262.874v-24.252h3.21v24.252H429.547z"/>
	<path fill="#FFFFFF" d="M440.355,262.874v-24.252h3.293l12.735,19.041v-19.041h3.077v24.252h-3.293l-12.735-19.059v19.059H440.355z
		"/>
	<path fill="#FFFFFF" d="M478.107,253.359v-2.842l10.273-0.017v8.996c-1.578,1.258-3.203,2.203-4.879,2.837
		c-1.678,0.636-3.397,0.953-5.162,0.953c-2.383,0-4.546-0.51-6.491-1.529c-1.947-1.024-3.416-2.498-4.408-4.426
		c-0.993-1.93-1.49-4.085-1.49-6.468c0-2.36,0.493-4.562,1.481-6.61c0.986-2.042,2.407-3.564,4.258-4.558
		c1.854-0.991,3.988-1.488,6.404-1.488c1.752,0,3.338,0.284,4.755,0.853c1.416,0.568,2.528,1.357,3.332,2.374
		c0.805,1.015,1.416,2.339,1.836,3.969l-2.894,0.794c-0.366-1.232-0.816-2.206-1.357-2.908c-0.539-0.706-1.312-1.274-2.315-1.696
		c-1.004-0.427-2.117-0.639-3.343-0.639c-1.466,0-2.734,0.225-3.804,0.672c-1.07,0.447-1.933,1.032-2.589,1.759
		c-0.657,0.728-1.166,1.529-1.529,2.398c-0.619,1.501-0.926,3.13-0.926,4.882c0,2.159,0.371,3.968,1.115,5.427
		c0.745,1.454,1.829,2.536,3.251,3.242c1.423,0.703,2.934,1.058,4.531,1.058c1.39,0,2.748-0.267,4.07-0.803
		c1.323-0.534,2.327-1.106,3.01-1.713v-4.517H478.107z"/>
</g>
<g>
	<path fill="#FFFFFF" d="M143.776,121.418c-28.397-35.814-22.37-87.849,13.461-116.26L157.435,5
		c-26.813,26.077-30.039,68.776-6.313,98.701c25.294,31.914,71.719,37.273,103.674,11.938
		c31.964-25.34,37.337-71.758,12.039-103.675c-1.172-1.479-2.395-2.875-3.642-4.242c3.689,3.271,7.157,6.884,10.304,10.861
		c28.401,35.818,22.374,87.846-13.459,116.25C224.208,163.243,172.17,157.243,143.776,121.418L143.776,121.418z"/>
</g>
<path fill="#FFFFFF" d="M262.292,81.962c0,23.106-24.126,41.833-53.883,41.833c-29.759,0-53.877-18.728-53.877-41.833
	c0-23.102,24.118-41.833,53.877-41.833C238.165,40.13,262.292,58.861,262.292,81.962z"/>
<g>
	<path fill="#FFFFFF" stroke="#FFFFFF" d="M41.698,208.754H21.062l-2.764,6.728c-1.099,2.67-1.646,4.612-1.646,5.82
		c0,1.734,1.63,2.6,4.893,2.6h3.617v3.18H4.05v-3.18h1.902c2.51,0,4.204-0.422,5.086-1.271c0.879-0.853,1.956-2.825,3.229-5.921
		l22.992-56.392h2.823l24.078,63.583h6.794v3.18H38.698v-3.18h8.758L41.698,208.754z M22.447,205.381h17.974l-8.637-22.727
		L22.447,205.381z"/>
</g>
<g>
	<path fill="#FFFFFF" stroke="#FFFFFF" d="M304.388,227.223h-56.301v-3.247h9.098v-60.551h-9.098v-3.251h35.5v3.251h-9.999v60.551
		h6.347c3.536,0,6.141-0.184,7.826-0.551c1.685-0.368,3.55-1.446,5.602-3.234c2.047-1.788,3.779-4.032,5.198-6.744
		c1.418-2.703,2.674-5.695,3.775-8.972h3.101L304.388,227.223z"/>
</g>
</svg>
