<?xml version="1.0" encoding="utf-8"?>
<!-- Generator: Adobe Illustrator 16.0.0, SVG Export Plug-In . SVG Version: 6.00 Build 0)  -->
<!DOCTYPE svg PUBLIC "-//W3C//DTD SVG 1.1//EN" "http://www.w3.org/Graphics/SVG/1.1/DTD/svg11.dtd">
<svg version="1.1" id="Calque_1" xmlns="http://www.w3.org/2000/svg" xmlns:xlink="http://www.w3.org/1999/xlink" x="0px" y="0px"
	 width="245px" height="133.351px" viewBox="0 0 245 133.351" enable-background="new 0 0 245 133.351" xml:space="preserve">
<g>
	<polygon fill="#122264" points="115.803,78.774 90.889,78.774 103.344,110.795 	"/>
</g>
<g>
	<path fill="#58585A" d="M38.661,91.927h6.872v3.704c0.179-0.327,0.409-0.729,0.692-1.205c0.282-0.476,0.646-0.937,1.093-1.383
		s0.997-0.833,1.651-1.16s1.442-0.491,2.365-0.491c1.16,0,2.209,0.253,3.146,0.759c0.937,0.506,1.74,1.19,2.409,2.053
		c0.67,0.863,1.19,1.852,1.562,2.968c0.371,1.115,0.558,2.298,0.558,3.548c0,1.249-0.187,2.477-0.558,3.682
		c-0.372,1.205-0.9,2.283-1.584,3.235c-0.686,0.952-1.511,1.718-2.478,2.298s-2.046,0.87-3.235,0.87
		c-0.803,0-1.502-0.134-2.098-0.401c-0.595-0.268-1.123-0.617-1.584-1.049c-0.461-0.431-0.848-0.915-1.16-1.45
		s-0.573-1.071-0.781-1.606v15.753h3.615v0.848H38.661v-0.848h3.168V92.775h-3.168V91.927z M54.548,100.763
		c0.029-1.755-0.015-3.347-0.134-4.774c-0.03-0.208-0.074-0.521-0.135-0.938c-0.06-0.416-0.202-0.825-0.427-1.228
		c-0.225-0.401-0.553-0.751-0.986-1.048c-0.434-0.298-1.009-0.446-1.727-0.446c-0.897,0-1.802,0.342-2.714,1.026
		s-1.622,1.8-2.13,3.347c-0.21,0.714-0.367,1.488-0.472,2.32c-0.104,0.833-0.157,1.637-0.157,2.41c0,1.428,0.157,2.663,0.471,3.704
		c0.314,1.042,0.726,1.912,1.234,2.61c0.508,0.699,1.076,1.221,1.704,1.562c0.627,0.342,1.271,0.513,1.929,0.513
		c0.837,0,1.495-0.223,1.974-0.669s0.829-1.063,1.054-1.853c0.225-0.788,0.366-1.74,0.426-2.856
		C54.519,103.329,54.548,102.102,54.548,100.763z"/>
	<path fill="#58585A" d="M60.935,91.927h7.006v17.494h3.079v0.848H60.935v-0.848h3.302V92.775h-3.302V91.927z M63.344,82.109
		c0-0.714,0.253-1.323,0.759-1.83c0.506-0.505,1.116-0.759,1.83-0.759s1.323,0.254,1.829,0.759c0.506,0.507,0.759,1.116,0.759,1.83
		s-0.253,1.324-0.759,1.829c-0.506,0.507-1.115,0.759-1.829,0.759s-1.324-0.252-1.83-0.759
		C63.597,83.434,63.344,82.823,63.344,82.109z"/>
	<path fill="#58585A" d="M74.455,110.269h-0.401v-7.096h0.714c0.268,1.042,0.498,1.853,0.691,2.433s0.498,1.138,0.915,1.673
		c0.029,0.061,0.156,0.217,0.379,0.469c0.224,0.253,0.528,0.521,0.915,0.804s0.849,0.535,1.384,0.759
		c0.535,0.223,1.145,0.334,1.83,0.334c0.684,0,1.294-0.11,1.829-0.334c0.535-0.223,0.989-0.504,1.361-0.846
		c0.371-0.341,0.654-0.72,0.848-1.135c0.193-0.416,0.29-0.816,0.29-1.202c0-0.92-0.342-1.58-1.026-1.981
		c-0.685-0.4-1.845-0.764-3.48-1.091c-0.744-0.147-1.473-0.296-2.187-0.444c-0.715-0.148-1.339-0.387-1.875-0.713
		c-0.952-0.534-1.6-1.254-1.941-2.158c-0.342-0.905-0.513-1.773-0.513-2.604c0-1.662,0.506-3.034,1.518-4.118
		c1.011-1.083,2.365-1.625,4.061-1.625c0.625,0,1.183,0.066,1.674,0.201c0.49,0.134,0.93,0.305,1.316,0.513
		c0.386,0.209,0.721,0.417,1.004,0.625c0.282,0.208,0.514,0.401,0.691,0.58l0.849-1.651h0.446v5.489h-0.804
		c-0.119-0.833-0.357-1.547-0.714-2.143c-0.357-0.595-0.789-1.085-1.294-1.473c-0.507-0.386-1.042-0.669-1.607-0.848
		s-1.115-0.268-1.65-0.268c-0.655,0-1.235,0.104-1.741,0.312s-0.93,0.477-1.271,0.803c-0.342,0.328-0.603,0.678-0.781,1.049
		c-0.178,0.373-0.268,0.736-0.268,1.094c0,0.833,0.335,1.405,1.004,1.718c0.67,0.312,1.719,0.618,3.146,0.915l1.25,0.224
		c0.535,0.119,1.13,0.268,1.785,0.446c0.653,0.178,1.271,0.483,1.852,0.914c0.58,0.432,1.063,1.012,1.45,1.741
		c0.387,0.729,0.58,1.688,0.58,2.878c0,0.774-0.119,1.532-0.356,2.276c-0.239,0.743-0.603,1.413-1.094,2.008
		c-0.491,0.596-1.108,1.079-1.852,1.45c-0.744,0.372-1.622,0.558-2.634,0.558c-1.22,0-2.224-0.23-3.012-0.691
		c-0.789-0.461-1.525-0.959-2.209-1.495L74.455,110.269z"/>
</g>
<g>
	<path fill="#58585A" d="M165.366,106.873c0.029,0.895,0.104,1.558,0.223,1.99s0.476,0.648,1.071,0.648
		c0.327,0,0.587-0.074,0.781-0.223c0.193-0.148,0.379-0.312,0.558-0.491l0.401,0.535c-0.893,0.893-1.948,1.339-3.168,1.339
		c-0.774,0-1.392-0.149-1.853-0.446s-0.811-0.646-1.048-1.049c-0.239-0.401-0.402-0.825-0.491-1.271
		c-0.09-0.446-0.149-0.818-0.179-1.115c-0.625,1.339-1.436,2.32-2.432,2.945c-0.997,0.624-2.15,0.937-3.459,0.937
		c-1.666,0-2.894-0.431-3.682-1.294c-0.789-0.862-1.183-1.874-1.183-3.034c0-0.595,0.126-1.272,0.379-2.031
		c0.253-0.758,0.855-1.494,1.808-2.209c0.773-0.595,1.837-1.093,3.191-1.495c1.353-0.401,3.175-0.602,5.466-0.602v-4.508
		c0-0.268-0.015-0.595-0.044-0.981c-0.03-0.387-0.149-0.759-0.357-1.116c-0.208-0.356-0.535-0.661-0.981-0.914
		s-1.071-0.38-1.874-0.38c-0.507,0-0.99,0.067-1.451,0.201s-0.863,0.305-1.204,0.513c-0.343,0.209-0.618,0.417-0.826,0.625
		c-0.208,0.209-0.312,0.401-0.312,0.58c0,0.089,0.045,0.209,0.134,0.357c0.09,0.148,0.193,0.298,0.312,0.446
		c0.179,0.208,0.305,0.446,0.38,0.714c0.073,0.268,0.111,0.476,0.111,0.625c0,0.417-0.142,0.833-0.424,1.249
		c-0.283,0.417-0.722,0.625-1.316,0.625c-0.625,0-1.064-0.238-1.316-0.714c-0.254-0.476-0.38-0.922-0.38-1.339
		c0-0.565,0.171-1.131,0.514-1.696c0.342-0.564,0.817-1.07,1.428-1.517c0.609-0.446,1.339-0.811,2.187-1.094
		c0.849-0.282,1.777-0.424,2.789-0.424c1.041,0,2.031,0.164,2.968,0.492c0.938,0.328,1.674,0.79,2.209,1.387
		c0.565,0.626,0.885,1.312,0.96,2.058c0.073,0.746,0.111,1.521,0.111,2.326V106.873z M161.796,100.765
		c-0.625,0-1.324,0.038-2.098,0.112s-1.577,0.305-2.409,0.691c-1.131,0.506-1.875,1.123-2.231,1.852
		c-0.357,0.729-0.536,1.437-0.536,2.12c0,1.131,0.312,1.941,0.938,2.433c0.625,0.49,1.309,0.736,2.053,0.736
		c0.625,0,1.153-0.112,1.584-0.335c0.432-0.224,0.751-0.438,0.96-0.647c0.387-0.356,0.691-0.729,0.915-1.115
		c0.223-0.387,0.394-0.804,0.513-1.25s0.193-0.922,0.224-1.428c0.029-0.506,0.059-1.026,0.089-1.562V100.765z"/>
	<path fill="#58585A" d="M186.621,102.506v7.765h-15.887l11.38-17.493h-2.053c-0.715,0-1.332,0.021-1.853,0.066
		s-0.975,0.111-1.361,0.201c-0.387,0.089-0.722,0.208-1.004,0.356c-0.283,0.149-0.543,0.343-0.78,0.58
		c-0.239,0.239-0.439,0.484-0.603,0.736c-0.164,0.254-0.328,0.565-0.491,0.938c-0.164,0.372-0.335,0.825-0.514,1.361
		c-0.178,0.535-0.401,1.22-0.669,2.053h-0.58l0.179-7.141h14.727l-11.559,17.494h3.258c0.743,0,1.406-0.015,1.986-0.045
		c0.58-0.029,1.093-0.111,1.539-0.245s0.841-0.335,1.183-0.603s0.662-0.64,0.96-1.116c0.207-0.327,0.401-0.721,0.58-1.183
		c0.179-0.461,0.342-0.929,0.49-1.405c0.149-0.476,0.269-0.922,0.357-1.339c0.089-0.416,0.163-0.743,0.224-0.981H186.621z"/>
	<path fill="#58585A" d="M202.066,91.929h6.828v17.494h3.258v0.848h-6.872v-2.812c-0.119,0.209-0.298,0.499-0.536,0.87
		c-0.238,0.372-0.603,0.744-1.093,1.116c-0.491,0.372-1.124,0.691-1.897,0.959s-1.74,0.401-2.9,0.401
		c-1.339,0-2.373-0.178-3.102-0.535c-0.729-0.357-1.271-0.743-1.629-1.16c-0.654-0.714-1.042-1.487-1.16-2.32
		c-0.119-0.833-0.179-1.814-0.179-2.945V92.777h-3.168v-0.849h6.783v12.986c0,0.596,0.022,1.176,0.066,1.74
		c0.045,0.566,0.173,1.071,0.382,1.518s0.53,0.812,0.964,1.094c0.435,0.283,1.039,0.424,1.816,0.424
		c0.449,0,0.965-0.067,1.548-0.201s1.174-0.408,1.771-0.825c0.538-0.357,0.957-0.781,1.256-1.271
		c0.299-0.491,0.523-1.057,0.673-1.696s0.254-1.368,0.313-2.187c0.061-0.818,0.091-1.733,0.091-2.745v-7.987h-3.214V91.929z"/>
	<path fill="#58585A" d="M214.45,78.765h7.408v30.658h3.659v0.848H214.45v-0.848h3.615V79.612h-3.615V78.765z"/>
	<path fill="#58585A" d="M227.688,91.929h7.006v17.494h3.079v0.848h-10.085v-0.848h3.302V92.777h-3.302V91.929z M230.097,82.111
		c0-0.714,0.253-1.323,0.759-1.83c0.506-0.505,1.116-0.759,1.83-0.759s1.323,0.254,1.829,0.759c0.506,0.507,0.759,1.116,0.759,1.83
		s-0.253,1.324-0.759,1.829c-0.506,0.507-1.115,0.759-1.829,0.759s-1.324-0.252-1.83-0.759
		C230.35,83.436,230.097,82.825,230.097,82.111z"/>
</g>
<g>
	<path fill="#122264" d="M134.204,122.969l1.5,0.379c-0.314,1.232-0.881,2.172-1.697,2.818c-0.817,0.647-1.816,0.971-2.996,0.971
		c-1.222,0-2.216-0.249-2.98-0.746c-0.766-0.497-1.349-1.218-1.748-2.161s-0.599-1.956-0.599-3.039c0-1.18,0.225-2.21,0.676-3.089
		s1.093-1.546,1.926-2.002c0.832-0.457,1.748-0.685,2.749-0.685c1.134,0,2.087,0.289,2.86,0.866s1.312,1.389,1.616,2.436
		l-1.477,0.348c-0.264-0.825-0.645-1.425-1.145-1.802c-0.5-0.376-1.129-0.564-1.887-0.564c-0.871,0-1.6,0.209-2.185,0.626
		c-0.585,0.418-0.996,0.979-1.233,1.683c-0.237,0.703-0.355,1.429-0.355,2.176c0,0.964,0.141,1.806,0.422,2.524
		c0.28,0.72,0.718,1.257,1.311,1.612c0.593,0.356,1.234,0.534,1.925,0.534c0.84,0,1.552-0.242,2.134-0.728
		C133.604,124.642,133.998,123.923,134.204,122.969z"/>
	<path fill="#122264" d="M137.957,121.423c0-1.882,0.505-3.354,1.516-4.419c1.01-1.064,2.314-1.597,3.912-1.597
		c1.046,0,1.989,0.25,2.83,0.75c0.84,0.5,1.48,1.197,1.921,2.092c0.441,0.894,0.661,1.908,0.661,3.042
		c0,1.149-0.231,2.178-0.695,3.085s-1.121,1.595-1.972,2.061c-0.851,0.467-1.769,0.7-2.753,0.7c-1.067,0-2.021-0.258-2.86-0.773
		c-0.841-0.516-1.478-1.219-1.91-2.11S137.957,122.418,137.957,121.423z M139.503,121.446c0,1.365,0.367,2.441,1.103,3.228
		c0.734,0.786,1.655,1.18,2.764,1.18c1.129,0,2.058-0.397,2.787-1.191c0.729-0.793,1.095-1.92,1.095-3.379
		c0-0.922-0.156-1.728-0.468-2.416c-0.312-0.688-0.769-1.222-1.369-1.601s-1.274-0.568-2.021-0.568
		c-1.062,0-1.976,0.365-2.741,1.095C139.886,118.521,139.503,119.74,139.503,121.446z"/>
	<path fill="#122264" d="M151.713,126.943v-11.335h1.539l5.953,8.899v-8.899h1.438v11.335h-1.539l-5.953-8.907v8.907H151.713z"/>
	<path fill="#122264" d="M163.553,123.302l1.415-0.124c0.067,0.567,0.224,1.032,0.468,1.396c0.245,0.363,0.625,0.657,1.141,0.882
		c0.516,0.224,1.096,0.336,1.74,0.336c0.572,0,1.077-0.085,1.516-0.255c0.438-0.17,0.764-0.403,0.978-0.7
		c0.214-0.296,0.321-0.619,0.321-0.97c0-0.355-0.104-0.666-0.31-0.932s-0.547-0.488-1.021-0.669
		c-0.305-0.119-0.977-0.303-2.019-0.553c-1.041-0.25-1.771-0.486-2.188-0.708c-0.542-0.283-0.945-0.635-1.21-1.055
		c-0.266-0.421-0.398-0.891-0.398-1.411c0-0.572,0.162-1.107,0.487-1.604c0.324-0.498,0.799-0.875,1.422-1.133
		c0.624-0.258,1.317-0.387,2.08-0.387c0.841,0,1.581,0.135,2.224,0.406c0.642,0.271,1.135,0.668,1.48,1.194
		c0.345,0.525,0.53,1.121,0.557,1.786l-1.438,0.108c-0.077-0.717-0.339-1.258-0.784-1.624c-0.446-0.366-1.104-0.549-1.976-0.549
		c-0.907,0-1.568,0.166-1.983,0.498c-0.415,0.333-0.623,0.733-0.623,1.203c0,0.407,0.147,0.742,0.441,1.005
		c0.288,0.263,1.042,0.532,2.262,0.808c1.219,0.276,2.055,0.518,2.509,0.724c0.659,0.304,1.146,0.689,1.461,1.155
		c0.314,0.467,0.472,1.004,0.472,1.612c0,0.604-0.173,1.172-0.518,1.705c-0.346,0.533-0.842,0.948-1.488,1.245
		c-0.647,0.296-1.375,0.444-2.185,0.444c-1.026,0-1.886-0.149-2.579-0.448s-1.236-0.749-1.631-1.35S163.573,124.06,163.553,123.302z
		"/>
	<path fill="#122264" d="M182.89,115.608h1.5v6.549c0,1.14-0.129,2.044-0.387,2.714s-0.723,1.216-1.396,1.636
		s-1.556,0.63-2.648,0.63c-1.062,0-1.931-0.183-2.605-0.549c-0.676-0.366-1.157-0.896-1.446-1.589s-0.433-1.641-0.433-2.842v-6.549
		h1.5v6.541c0,0.984,0.091,1.71,0.274,2.177c0.183,0.467,0.497,0.826,0.943,1.078c0.445,0.253,0.99,0.379,1.635,0.379
		c1.104,0,1.89-0.25,2.358-0.75s0.704-1.461,0.704-2.884V115.608z"/>
	<path fill="#122264" d="M187.824,126.943v-11.335h1.5v9.997h5.582v1.338H187.824z"/>
	<path fill="#122264" d="M198.898,126.943v-9.997h-3.734v-1.338h8.984v1.338h-3.75v9.997H198.898z"/>
	<path fill="#122264" d="M206.711,126.943v-11.335h1.5v11.335H206.711z"/>
	<path fill="#122264" d="M211.763,126.943v-11.335h1.539l5.953,8.899v-8.899h1.438v11.335h-1.539l-5.953-8.907v8.907H211.763z"/>
	<path fill="#122264" d="M229.409,122.497v-1.329l4.802-0.008v4.206c-0.737,0.588-1.497,1.029-2.28,1.326
		c-0.784,0.296-1.588,0.444-2.413,0.444c-1.113,0-2.125-0.238-3.034-0.715c-0.91-0.478-1.597-1.167-2.061-2.068
		c-0.464-0.902-0.696-1.91-0.696-3.023c0-1.104,0.23-2.133,0.692-3.089c0.461-0.956,1.125-1.667,1.99-2.131
		c0.866-0.464,1.864-0.695,2.993-0.695c0.819,0,1.561,0.133,2.223,0.398s1.182,0.635,1.558,1.109
		c0.376,0.474,0.662,1.093,0.858,1.855l-1.353,0.371c-0.171-0.577-0.382-1.031-0.635-1.36c-0.252-0.33-0.613-0.595-1.082-0.793
		c-0.47-0.198-0.99-0.298-1.562-0.298c-0.686,0-1.278,0.104-1.778,0.313s-0.903,0.483-1.21,0.823s-0.545,0.714-0.715,1.121
		c-0.289,0.701-0.433,1.462-0.433,2.281c0,1.01,0.174,1.855,0.521,2.536s0.854,1.186,1.52,1.516
		c0.665,0.329,1.371,0.494,2.118,0.494c0.649,0,1.284-0.125,1.902-0.375s1.088-0.517,1.407-0.8v-2.111H229.409z"/>
</g>
<g>
	<path fill="#122264" d="M73.134,60.824C59.86,44.083,62.678,19.761,79.426,6.481l0.093-0.074
		c-12.533,12.189-14.041,32.147-2.951,46.135c11.823,14.917,33.523,17.422,48.46,5.581c14.94-11.845,17.452-33.542,5.627-48.46
		c-0.548-0.691-1.119-1.344-1.702-1.983c1.725,1.529,3.346,3.218,4.816,5.077c13.275,16.742,10.458,41.062-6.291,54.338
		C110.729,80.374,86.406,77.569,73.134,60.824L73.134,60.824z"/>
</g>
<linearGradient id="SVGID_1_" gradientUnits="userSpaceOnUse" x1="78.1611" y1="42.3818" x2="128.5312" y2="42.3818">
	<stop  offset="0" style="stop-color:#000066"/>
	<stop  offset="0.9879" style="stop-color:#015AA2"/>
</linearGradient>
<ellipse fill="url(#SVGID_1_)" cx="103.346" cy="42.381" rx="25.185" ry="19.554"/>
<g>
	<path fill="#58585A" stroke="#58585A" d="M25.42,101.646h-9.646l-1.292,3.146c-0.514,1.248-0.77,2.156-0.77,2.721
		c0,0.811,0.762,1.215,2.287,1.215h1.69v1.485H7.822v-1.485h0.889c1.173,0,1.965-0.197,2.377-0.595
		c0.411-0.397,0.914-1.32,1.51-2.768l10.747-26.358h1.319l11.255,29.721h3.176v1.485H24.018v-1.485h4.094L25.42,101.646z
		 M16.422,100.07h8.401l-4.037-10.623L16.422,100.07z"/>
</g>
<g>
	<path fill="#58585A" stroke="#58585A" d="M148.208,110.28h-26.316v-1.519h4.253V80.459h-4.253v-1.52h16.594v1.52h-4.674v28.303
		h2.967c1.652,0,2.87-0.086,3.658-0.257c0.787-0.173,1.659-0.676,2.618-1.512c0.957-0.836,1.767-1.886,2.43-3.152
		c0.663-1.264,1.25-2.663,1.765-4.194h1.449L148.208,110.28z"/>
</g>
</svg>
